<?xml version="1.0" encoding="utf-8"?>
<!-- Generator: Adobe Illustrator 18.1.1, SVG Export Plug-In . SVG Version: 6.00 Build 0)  -->
<!DOCTYPE svg PUBLIC "-//W3C//DTD SVG 1.1//EN" "http://www.w3.org/Graphics/SVG/1.1/DTD/svg11.dtd">
<svg version="1.1" id="Layer_1" xmlns="http://www.w3.org/2000/svg" xmlns:xlink="http://www.w3.org/1999/xlink" x="0px" y="0px"
	 viewBox="-575 577 48 48" enable-background="new -575 577 48 48" xml:space="preserve">
<g id="Layer_2" display="none">
	<g display="inline" opacity="0.5">
		<polygon fill="#00B7E8" points="-726,524 -726,574 -1028,574 -1028,625 -524,625 -524,584.5 -524,578.5 -524,524 		"/>
	</g>
</g>
<g id="Layer_1_1_">
	<g>
		<path fill="none" stroke="#FFFFFF" stroke-width="2" stroke-miterlimit="10" d="M-539,610.7l-4.2-2.4l2-12.5
			c0.7-4.3,0-8.8-1.9-12.2c-1.9-3.4-4.7-5.4-7.8-5.4c-3,0-5.9,2-7.8,5.4c-1.9,3.4-2.6,7.9-1.9,12.2l2,12.4l-4.2,2.4
			c-0.5,0.3-0.8,0.8-0.8,1.4v6.8c0,0.6,0.3,1.1,0.8,1.4c0.5,0.3,1.1,0.3,1.6,0l4.7-2.7h11.1l4.7,2.8c0.5,0.3,1.1,0.3,1.6,0
			c0.5-0.3,0.8-0.8,0.8-1.4V612C-538.2,611.5-538.5,611-539,610.7z M-550.9,586.7c1.2,0,2.3,1,2.3,2.3s-1,2.3-2.3,2.3
			c-1.2,0-2.3-1-2.3-2.3S-552.1,586.7-550.9,586.7z M-550.9,602.2c-1.9,0-3.5-1.6-3.5-3.5c0-1.9,1.6-3.5,3.5-3.5
			c1.9,0,3.5,1.6,3.5,3.5C-547.4,600.6-549,602.2-550.9,602.2z"/>
		<path fill="none" stroke="#FFFFFF" stroke-width="2" stroke-miterlimit="10" d="M-555.9,621.6c0,1.2,0.9,2.1,2.1,2.1h5.8
			c1.2,0,2.1-1,2.1-2.1v-1.2h-10V621.6z"/>
	</g>
</g>
</svg>
