<?xml version="1.0" encoding="utf-8"?>
<!-- Generator: Adobe Illustrator 18.1.1, SVG Export Plug-In . SVG Version: 6.00 Build 0)  -->
<!DOCTYPE svg PUBLIC "-//W3C//DTD SVG 1.1//EN" "http://www.w3.org/Graphics/SVG/1.1/DTD/svg11.dtd">
<svg version="1.1" id="Layer_1" xmlns="http://www.w3.org/2000/svg" xmlns:xlink="http://www.w3.org/1999/xlink" x="0px" y="0px"
	 viewBox="-549 551 100 100" enable-background="new -549 551 100 100" xml:space="preserve">
<g>
	<path fill="#FFFFFF" d="M-498.3,615.5c7.5,0,13.6-6.1,13.6-13.6c0-7.5-6.1-13.6-13.6-13.6c-7.5,0-13.6,6.1-13.6,13.6
		C-511.9,609.4-505.8,615.5-498.3,615.5z M-498.3,592.4c5.3,0,9.6,4.3,9.6,9.6c0,5.3-4.3,9.6-9.6,9.6c-5.3,0-9.6-4.3-9.6-9.6
		C-507.9,596.7-503.6,592.4-498.3,592.4z"/>
	<path fill="#FFFFFF" d="M-527.7,610h5c0.5,2,1.1,2.9,1.9,4.3l-3.6,3.5c-1.6,1.6-1.6,4.3,0,5.9l4.6,4.6c0.8,0.8,1.8,1.2,3,1.2
		s2.2-0.4,3-1.2l3.7-3.7c1.3,0.7,2.7,1.3,4.1,1.7l0,5.4c0,2.2,2.1,4.2,4.4,4.2h6.5c2.3,0,4-2,4-4.3v-5.4c1.7-0.5,3-1.1,4.3-1.8
		l3.9,3.8c0.8,0.8,1.8,1.2,3,1.2s2.2-0.4,3-1.2l4.6-4.6c1.6-1.6,1.6-4.3,0-5.9l-3.7-3.8l-0.1-0.1c0.7-1.3,1.3-3,1.7-4h5.4
		c2.2,0,3.9-2,3.9-4.4v-6.5c0-2.4-1.7-4.1-3.9-4.1h-5.3c-0.4-2-1-3-1.7-4.4l3.7-3.7c1.6-1.6,1.6-4.3,0-5.9l-4.6-4.6
		c-0.8-0.8-1.8-1.2-3-1.2c-1.1,0-2.2,0.4-3,1.2l-3.6,3.6c-1.4-0.8-3-1.4-4.6-1.9l0-4.9c0-2.3-1.7-4.1-4-4.1h-6.5
		c-2.4,0-4.4,1.8-4.4,4v4.9c-1.3,0.4-2.9,1-4.4,1.8l-3.4-3.4c-0.8-0.8-1.8-1.2-2.9-1.2c-1.1,0-2.2,0.4-2.9,1.2l-4.6,4.6
		c-1.6,1.6-1.6,4.3,0,5.9l3.4,3.4c-0.8,1.5-1.5,2.7-1.9,4.7h-4.8c-2.4,0-4.3,1.8-4.3,4.1v6.5C-532,607.9-530,610-527.7,610z
		 M-527.7,599h6.4c1,0,1.8-0.7,2-1.7c0.5-2.6,1.3-4.2,2.6-6.4c0.5-0.8,0.4-1.9-0.4-2.6l-4.4-4.4c-0.1-0.1-0.1-0.2,0-0.3l4.6-4.6
		c0,0,0.2,0,0.2,0l3.8,3.8l0.5,0.6c0.6,0.8,1.7,0.9,2.6,0.4c2.1-1.3,4.9-2.2,6.4-2.6c0.9-0.2,1.4-1,1.4-1.9v-6.3
		c0.1-0.1,0.3-0.2,0.4-0.2l6.5,0c0,0,0,0.1,0,0.1v4.9c0,0,0,0.1,0,0.1l0.1,1.6c0,0.9,0.7,1.6,1.5,1.8c2.3,0.6,4.4,1.5,6.3,2.7
		c0.8,0.5,1.9,0.4,2.5-0.3l4.6-4.6c0.1-0.1,0.2-0.1,0.2,0l4.6,4.6c0.1,0.1,0.1,0.2,0,0.2l-3.8,3.8l-0.9,0.9
		c-0.7,0.6-0.8,1.7-0.3,2.5c1.1,1.9,2,4,2.5,6.2c0.2,0.9,1,1.6,1.9,1.6h6.7c0,0,0,0,0,0.1v6.5c0,0.1,0,0.4,0,0.4h-6.8
		c-0.9,0-1.7,0.6-1.9,1.4c-0.5,2-1.3,3.9-2.4,5.7c-0.4,0.7-0.4,1.6,0.1,2.2l1,1.3c0.1,0.1,0.1,0.1,0.2,0.2l3.8,3.8
		c0.1,0.1,0.1,0.2,0,0.2l-4.6,4.6c-0.1,0.1-0.2,0.1-0.3,0l-3.9-3.9l-1.1-1.1c-0.7-0.6-1.7-0.7-2.4-0.3c-2,1.2-3.3,2-5.9,2.5
		c-0.9,0.2-1.6,1-1.6,2v6.9c0,0.1,0,0.3,0,0.3l0,0c0,0,0,0,0,0h-6.5c-0.2,0-0.4-0.2-0.4-0.2l0-4.8l0.1-2c0-1-0.6-1.8-1.5-2
		c-2.1-0.5-4-1.3-5.9-2.4c-0.3-0.2-0.7-0.3-1-0.3c-0.5,0-1,0.2-1.4,0.6l-4.8,4.8c-0.1,0.1-0.2,0.1-0.2,0l-4.6-4.6
		c-0.1-0.1-0.1-0.2,0-0.2l4.7-4.7c0.7-0.7,0.8-1.7,0.3-2.5c-1.2-1.9-2.1-3.9-2.6-6.1c-0.2-0.9-1-1.4-1.9-1.4c0,0,0,0,0,0l-6.5-0.1
		c-0.1,0-0.3-0.2-0.3-0.3l0-6.5C-528,599.1-527.8,599-527.7,599z"/>
</g>
</svg>
