<?xml version="1.0" encoding="utf-8"?>
<!-- Generator: Adobe Illustrator 18.1.1, SVG Export Plug-In . SVG Version: 6.00 Build 0)  -->
<!DOCTYPE svg PUBLIC "-//W3C//DTD SVG 1.1//EN" "http://www.w3.org/Graphics/SVG/1.1/DTD/svg11.dtd">
<svg version="1.1" id="Layer_1" xmlns="http://www.w3.org/2000/svg" xmlns:xlink="http://www.w3.org/1999/xlink" x="0px" y="0px"
	 viewBox="-549 551 100 100" enable-background="new -549 551 100 100" xml:space="preserve">
<g>
	<path fill="#FFFFFF" d="M-527,588.5h4c1.1,0,2-0.9,2-2s-0.9-2-2-2h-4c-1.1,0-2,0.9-2,2S-528.1,588.5-527,588.5z"/>
	<path fill="#FFFFFF" d="M-527,603.5h4c1.1,0,2-0.9,2-2s-0.9-2-2-2h-4c-1.1,0-2,0.9-2,2S-528.1,603.5-527,603.5z"/>
	<path fill="#FFFFFF" d="M-527,618.5h4c1.1,0,2-0.9,2-2s-0.9-2-2-2h-4c-1.1,0-2,0.9-2,2S-528.1,618.5-527,618.5z"/>
	<path fill="#FFFFFF" d="M-513,588.5h44c1.1,0,2-0.9,2-2s-0.9-2-2-2h-44c-1.1,0-2,0.9-2,2S-514.1,588.5-513,588.5z"/>
	<path fill="#FFFFFF" d="M-513,603.5h44c1.1,0,2-0.9,2-2s-0.9-2-2-2h-44c-1.1,0-2,0.9-2,2S-514.1,603.5-513,603.5z"/>
	<path fill="#FFFFFF" d="M-513,618.5h44c1.1,0,2-0.9,2-2s-0.9-2-2-2h-44c-1.1,0-2,0.9-2,2S-514.1,618.5-513,618.5z"/>
</g>
</svg>
