<?xml version="1.0" encoding="utf-8"?>
<!-- Generator: Adobe Illustrator 18.1.1, SVG Export Plug-In . SVG Version: 6.00 Build 0)  -->
<!DOCTYPE svg PUBLIC "-//W3C//DTD SVG 1.1//EN" "http://www.w3.org/Graphics/SVG/1.1/DTD/svg11.dtd">
<svg version="1.1" id="Layer_1" xmlns="http://www.w3.org/2000/svg" xmlns:xlink="http://www.w3.org/1999/xlink" x="0px" y="0px"
	 viewBox="-549 551 100 100" enable-background="new -549 551 100 100" xml:space="preserve">
<g>
	<path fill="#FFFFFF" d="M-499,568.4c-1.4,0-2.5,1.1-2.5,2.5v17c0,1.4,1.1,2.5,2.5,2.5s2.5-1.1,2.5-2.5v-17
		C-496.5,569.5-497.6,568.4-499,568.4z"/>
	<path fill="#FFFFFF" d="M-499,613.4c-1.4,0-2.5,1.1-2.5,2.5v17c0,1.4,1.1,2.5,2.5,2.5s2.5-1.1,2.5-2.5v-17
		C-496.5,614.5-497.6,613.4-499,613.4z"/>
	<path fill="#FFFFFF" d="M-510.5,602c0-1.4-1.1-2.5-2.5-2.5h-17c-1.4,0-2.5,1.1-2.5,2.5s1.1,2.5,2.5,2.5h17
		C-511.6,604.5-510.5,603.4-510.5,602z"/>
	<path fill="#FFFFFF" d="M-468,599.5h-17c-1.4,0-2.5,1.1-2.5,2.5s1.1,2.5,2.5,2.5h17c1.4,0,2.5-1.1,2.5-2.5S-466.6,599.5-468,599.5z
		"/>
	<path fill="#FFFFFF" d="M-518.4,578c-1-1-2.6-1-3.5,0s-1,2.6,0,3.5l12,12c0.5,0.5,1.1,0.7,1.8,0.7s1.3-0.2,1.8-0.7c1-1,1-2.6,0-3.5
		L-518.4,578z"/>
	<path fill="#FFFFFF" d="M-486.6,609.8c-1-1-2.6-1-3.5,0c-1,1-1,2.6,0,3.5l12,12c0.5,0.5,1.1,0.7,1.8,0.7c0.6,0,1.3-0.2,1.8-0.7
		c1-1,1-2.6,0-3.5L-486.6,609.8z"/>
	<path fill="#FFFFFF" d="M-509.9,610.5l-12,12c-1,1-1,2.6,0,3.5c0.5,0.5,1.1,0.7,1.8,0.7s1.3-0.2,1.8-0.7l12-12c1-1,1-2.6,0-3.5
		C-507.4,609.5-509,609.5-509.9,610.5z"/>
	<path fill="#FFFFFF" d="M-490.1,594.2c0.5,0.5,1.1,0.7,1.8,0.7c0.6,0,1.3-0.2,1.8-0.7l12-12c1-1,1-2.6,0-3.5c-1-1-2.6-1-3.5,0
		l-12,12C-491.1,591.7-491.1,593.3-490.1,594.2z"/>
</g>
</svg>
